<?xml version="1.0" encoding="UTF-8" standalone="no"?>
<!-- Generator: Adobe Illustrator 19.2.0, SVG Export Plug-In . SVG Version: 6.00 Build 0)  -->

<svg
   xmlns:dc="http://purl.org/dc/elements/1.1/"
   xmlns:cc="http://creativecommons.org/ns#"
   xmlns:rdf="http://www.w3.org/1999/02/22-rdf-syntax-ns#"
   xmlns:svg="http://www.w3.org/2000/svg"
   xmlns="http://www.w3.org/2000/svg"
   xmlns:sodipodi="http://sodipodi.sourceforge.net/DTD/sodipodi-0.dtd"
   xmlns:inkscape="http://www.inkscape.org/namespaces/inkscape"
   version="1.1"
   id="圖層_1"
   x="0px"
   y="0px"
   viewBox="0 0 260 260"
   xml:space="preserve"
   inkscape:version="0.91 r13725"
   sodipodi:docname="Chat.svg"
   width="260"
   height="260"><metadata
   id="metadata3361"><rdf:RDF><cc:Work
       rdf:about=""><dc:format>image/svg+xml</dc:format><dc:type
         rdf:resource="http://purl.org/dc/dcmitype/StillImage" /><dc:title></dc:title></cc:Work></rdf:RDF></metadata><defs
   id="defs3359" /><sodipodi:namedview
   pagecolor="#ffffff"
   bordercolor="#666666"
   borderopacity="1"
   objecttolerance="10"
   gridtolerance="10"
   guidetolerance="10"
   inkscape:pageopacity="0"
   inkscape:pageshadow="2"
   inkscape:window-width="1680"
   inkscape:window-height="988"
   id="namedview3357"
   showgrid="false"
   inkscape:zoom="1.5634615"
   inkscape:cx="33.522587"
   inkscape:cy="173.52468"
   inkscape:window-x="1432"
   inkscape:window-y="-8"
   inkscape:window-maximized="1"
   inkscape:current-layer="圖層_1" />
<style
   type="text/css"
   id="style3337">
	.st0{fill:#F6F5F5;}
	.st1{fill:none;stroke:#BEBDBD;stroke-width:6.9749;stroke-linecap:round;stroke-linejoin:round;stroke-miterlimit:10;}
	.st2{fill:none;}
	.st3{fill:#BEBDBD;}
	.st4{clip-path:url(#XMLID_14_);fill:#80B029;}
	.st5{clip-path:url(#XMLID_14_);fill:#5E6A71;}
	.st6{clip-path:url(#XMLID_15_);fill:#80B029;}
	.st7{clip-path:url(#XMLID_15_);fill:#5E6A71;}
	.st8{fill:none;stroke:#F6F5F5;stroke-width:13.9498;stroke-linecap:round;stroke-linejoin:round;stroke-miterlimit:10;}
	.st9{fill:#BEBDBD;stroke:#BEBDBD;stroke-width:2.6156;stroke-miterlimit:10;}
</style>
<g
   id="g3339"
   transform="matrix(0.99897156,0,0,1,-21.746617,4.4772448)">
	<g
   id="g3341">
		<path
   id="XMLID_738_"
   class="st0"
   d="m 265.3567,255.52276 -226.250935,0 c -9.603817,0 -17.33676,-7.70554 -17.33676,-17.27532 l 0,-225.449352 c 0,-9.5697894 7.732943,-17.2753348 17.33676,-17.2753348 l 226.126215,0 c 9.60382,0 17.33676,7.7055454 17.33676,17.2753348 l 0,225.325062 c 0.12473,9.69407 -7.60822,17.39961 -17.21204,17.39961 z"
   inkscape:connector-curvature="0"
   style="fill:#f6f5f5" />
		<g
   id="XMLID_610_">
			
		</g>
		<g
   id="XMLID_604_">
			<g
   id="XMLID_605_">
				<g
   id="XMLID_608_">
					<path
   id="XMLID_609_"
   class="st1"
   d="m 204.30549,100.55546 c -0.18321,2.10628 0.0255,7.0826 -0.20635,8.53086 -0.9604,5.99998 -2.48974,11.5734 -4.81751,16.90672 0,0 -6.73259,12.21397 -17.11596,20.53326 -9.96293,7.98243 -22.22665,14.66515 -36.92419,17.2777 7.53102,16.66661 28.29776,24.98884 53.08166,24.98884 4.65554,0 9.03722,-0.4 13.28198,-1.19999 l 22.04536,22.13325 0,-30.26656 c 12.87119,-7.73331 21.08685,-19.59994 21.08685,-32.93324 0,-22.2666 -22.54679,-44.85054 -50.43184,-45.97084 z"
   inkscape:connector-curvature="0"
   style="fill:none;stroke:#bebdbd;stroke-width:9.4243679;stroke-linecap:round;stroke-linejoin:round;stroke-miterlimit:10"
   sodipodi:nodetypes="cscscscccsc" />
				</g>
				<path
   id="XMLID_606_"
   class="st1"
   d="m 122.16645,54.22344 c -37.339578,0 -67.770496,21.85171 -67.770496,48.78163 0,15.38854 9.86949,29.08433 25.331691,38.00967 l 0,34.77808 26.483125,-25.54496 c 5.09924,0.92331 10.52746,1.38497 15.95568,1.38497 37.33957,0 67.77049,-21.85172 67.77049,-48.78164 0,-26.77604 -30.26643,-48.62775 -67.77049,-48.62775 z"
   inkscape:connector-curvature="0"
   style="fill:none;stroke:#bebdbd;stroke-width:11.09706783;stroke-linecap:round;stroke-linejoin:round;stroke-miterlimit:10" />
			</g>
		</g>
		
		
		
		
	<line
   style="fill:none;stroke:#bebdbd;stroke-width:9.86730289;stroke-linecap:round;stroke-linejoin:round;stroke-miterlimit:10"
   y2="115.08494"
   x2="157.83716"
   y1="115.08494"
   x1="92.19323"
   class="st1"
   id="line3363" /><line
   style="fill:none;stroke:#bebdbd;stroke-width:8.90746307;stroke-linecap:round;stroke-linejoin:round;stroke-miterlimit:10"
   y2="156.71239"
   x2="219.56154"
   y1="156.71239"
   x1="185.80154"
   class="st1"
   id="line3365" /><line
   id="line3367"
   class="st1"
   x1="92.19323"
   y1="95.185059"
   x2="157.83716"
   y2="95.185059"
   style="fill:none;stroke:#bebdbd;stroke-width:9.86730289;stroke-linecap:round;stroke-linejoin:round;stroke-miterlimit:10" /><line
   id="line3369"
   class="st1"
   x1="191.5186"
   y1="140.43066"
   x2="220.63553"
   y2="140.43066"
   style="fill:none;stroke:#bebdbd;stroke-width:8.27228832;stroke-linecap:round;stroke-linejoin:round;stroke-miterlimit:10" /></g>
	<rect
   class="st2"
   width="325"
   height="260"
   id="rect3355"
   x="0"
   y="0"
   style="fill:none" />
</g>
</svg>